<?xml version="1.0" encoding="UTF-8"?>
<svg width="53px" height="57px" viewBox="0 0 53 57" version="1.1" xmlns="http://www.w3.org/2000/svg" xmlns:xlink="http://www.w3.org/1999/xlink">
    <!-- Generator: Sketch 58 (84663) - https://sketch.com -->
    <title>brain</title>
    <desc>Created with Sketch.</desc>
    <g id="Landing" stroke="none" stroke-width="1" fill="none" fill-rule="evenodd" stroke-linecap="round">
        <g id="Desktop-HD-Copy" transform="translate(-130.000000, -3265.000000)">
            <g id="brain" transform="translate(132.000000, 3267.000000)">
                <path d="M46.2198,26.4 C49.5,29.7 49.5,36.3 42.9,38.5 C46.2,45.1 41.3941,47.3 36.3,47.3 C35.211,51.6725 30.6405,52.8143 28.6033,52.8001322 C26.0942,52.7824 24.2,50.952 24.2,48.4 C24.2,41.7989 24.2,17.2227 24.2,6.2238 C24.2,1.254 25.6476,0 28.6033,0 C35.2099,0 38.8443,3.9204 39.6132,6.6 C46.1505,7.3964 51.5856,15.2625 46.2198,26.4 Z" id="Path" stroke="#000000" stroke-width="3.3"></path>
                <path d="M46.398,25.3 C46.398,25.3 45.1,30.8 36.3,30.8" id="Path" stroke="#000000" stroke-width="3.3"></path>
                <path d="M33,13.2 C33,15.4 35.2,19.8 41.8,19.8" id="Path" stroke="#FF4672" stroke-width="2.2"></path>
                <path d="M2.1813,26.4 C-0.8668,29.7066 -1.1,36.3 5.5,38.5 C2.2,44 7.007,48.4 12.1,48.4 C13.189,52.7725 17.6,52.8 19.7967,52.8 C22.3058,52.8 24.2,50.952 24.2,48.4 C24.2,41.7989 24.2,17.2227 24.2,6.2238 C24.2,1.254 22.7524,0 19.7967,0 C13.1901,0 9.5557,3.9204 8.7868,6.6 C2.2495,7.3964 -3.1856,15.2625 2.1813,26.4 Z" id="Path" stroke="#000000" stroke-width="3.3"></path>
                <path d="M15.4,25.3 C15.4,25.3 13.0944,23.1 8.8,23.1 C5.0534,23.1 2.1813,26.4 2.1813,26.4" id="Path" stroke="#000000" stroke-width="3.3"></path>
                <path d="M15.3934,41.7989 C15.3934,40.7 15.4,34.1 8.7868,33" id="Path" stroke="#FF4672" stroke-width="2.2"></path>
                <path d="M17.5934,11 C17.5934,12.1 16.5,15.4 11,15.4" id="Path" stroke="#FF4672" stroke-width="2.2"></path>
                <path d="M36.3,47.3 C33,46.2 30.8,44 30.8,39.6" id="Path" stroke="#000000" stroke-width="3.3"></path>
            </g>
        </g>
    </g>
</svg>