<?xml version="1.0" encoding="UTF-8"?>
<svg width="190px" height="30px" viewBox="0 0 190 30" version="1.1" xmlns="http://www.w3.org/2000/svg" xmlns:xlink="http://www.w3.org/1999/xlink">
    <!-- Generator: Sketch 58 (84663) - https://sketch.com -->
    <title>Group 12</title>
    <desc>Created with Sketch.</desc>
    <defs>
        <linearGradient x1="0.0175210406%" y1="50.0354146%" x2="99.9676358%" y2="50.0354146%" id="linearGradient-1">
            <stop stop-color="#F07091" stop-opacity="0" offset="5%"></stop>
            <stop stop-color="#F07091" offset="90%"></stop>
        </linearGradient>
        <linearGradient x1="-0.00282658518%" y1="50.0878211%" x2="99.9911383%" y2="50.0878211%" id="linearGradient-2">
            <stop stop-color="#F07091" offset="10%"></stop>
            <stop stop-color="#F07091" stop-opacity="0" offset="85%"></stop>
        </linearGradient>
    </defs>
    <g id="Landing" stroke="none" stroke-width="1" fill="none" fill-rule="evenodd">
        <g id="Desktop-HD-Copy" transform="translate(-85.000000, -38.000000)" fill-rule="nonzero">
            <g id="Group-12" transform="translate(85.000000, 31.000000)">
                <g id="Group-11" transform="translate(36.000000, 0.000000)" fill="#000000">
                    <path d="M2.55,12.15 L4.95,12.15 L4.95,9.09 L2.55,9.09 L2.55,12.15 Z M2.73,30 L4.8,30 L4.8,15.21 L2.73,15.21 L2.73,30 Z M16.5750002,14.97 C14.4450002,14.97 12.6450002,15.87 11.6850002,17.37 L11.6850002,15.21 L9.61500019,15.21 L9.61500019,30 L11.6850002,30 L11.6850002,23.37 C11.6850002,19.2 13.3050002,16.8 16.0950002,16.8 C18.3150002,16.8 19.3350002,18.27 19.3350002,21.45 L19.3350002,30 L21.4050002,30 L21.4050002,20.94 C21.4050002,17.01 19.7550002,14.97 16.5750002,14.97 Z M30.3300004,30.24 C33.1800004,30.24 35.6400004,28.74 35.6400004,25.74 C35.6400004,20.13 27.0900004,22.35 27.0900004,18.84 C27.0900004,17.55 28.2600004,16.8 30.0900004,16.8 C31.9200004,16.8 33.0900004,17.64 33.8100004,18.96 L35.4600004,18.06 C34.4400004,15.96 32.5200004,14.97 30.1500004,14.97 C27.1800004,14.97 25.0800004,16.56 25.0800004,19.14 C25.0800004,24.39 33.6000004,21.93 33.6000004,25.86 C33.6000004,27.42 32.3100004,28.41 30.3000004,28.41 C27.9900004,28.41 26.5500004,27.12 26.0100004,25.59 L24.2700004,26.37 C25.0500004,28.74 27.4200004,30.24 30.3300004,30.24 Z M45.3150006,28.02 C44.6550006,28.23 44.0850006,28.35 43.5750006,28.35 C42.4050006,28.35 41.7450006,27.69 41.7450006,26.25 L41.7450006,16.95 L45.3150006,16.95 L45.3150006,15.21 L41.7450006,15.21 L41.7450006,9.81 L39.6750006,11.37 L39.6750006,15.21 L37.2150006,15.21 L37.2150006,16.95 L39.6750006,16.95 L39.6750006,26.52 C39.6750006,29.13 41.1150006,30.24 43.0950006,30.24 C43.7850006,30.24 44.5650006,30.09 45.3450006,29.85 L45.3150006,28.02 Z M53.7600008,14.97 C51.2400008,14.97 49.3200008,15.93 47.7300008,18 L49.2300008,19.26 C50.4300008,17.61 51.8700008,16.8 53.7300008,16.8 C56.2200008,16.8 57.5700008,18.21 57.5700008,20.79 L57.5700008,21.48 L54.5400008,21.48 C51.6300008,21.48 50.0400008,21.75 48.9000008,22.41 C47.8200008,23.07 47.2200008,24.21 47.2200008,25.71 C47.2200008,28.56 49.1100008,30.24 52.3200008,30.24 C54.6600008,30.24 56.4600008,29.37 57.6300008,27.72 L57.7500008,30 L59.6400008,30 L59.6400008,20.79 C59.6400008,17.1 57.4800008,14.97 53.7600008,14.97 Z M52.9200007,28.53 C50.7000008,28.53 49.2900008,27.48 49.2900008,25.83 C49.2900008,24.99 49.5600008,24.33 50.1000008,23.91 C50.7923084,23.3619231 51.9006664,23.1744231 54.4118607,23.1608108 L57.5700008,23.16 L57.5700008,23.37 C57.5700008,26.52 55.7700008,28.53 52.9200007,28.53 Z M70.2566108,27.9032314 L68.6526796,27.6932226 C66.9931074,27.4592308 65.7150009,27.1269231 65.7150009,26.13 C65.7150009,25.77 65.8650009,25.53 66.1350009,25.35 C67.0050009,25.71 67.9650009,25.92 68.9850009,25.92 C72.2250009,25.92 74.9850009,23.82 74.9850009,20.52 C74.9850009,19.56 74.7450009,18.69 74.3550009,17.94 L76.4850009,16.2 L74.5950009,13.92 L72.3450009,15.84 C71.3550009,15.24 70.1550009,14.91 68.8650009,14.91 C65.5650009,14.91 62.8050009,17.13 62.8050009,20.34 C62.8050009,21.63 63.2550009,22.8 64.0050009,23.73 C63.1350009,24.48 62.6250009,25.41 62.6250009,26.7 C62.6250009,28.23 63.3450009,29.16 64.3950009,29.73 L62.2650009,31.08 L62.2399864,31.2134694 C62.2203071,31.3328571 62.2050009,31.4828571 62.2050009,31.74 C62.2050009,34.8 64.7250009,36.42 69.1350009,36.42 C73.1250009,36.42 75.9450009,35.1 75.9450009,32.01 C75.9450009,28.9219149 73.0000168,28.2765686 70.2566108,27.9032314 L70.2566108,27.9032314 Z M68.9250009,17.91 C70.4550009,17.91 71.3850009,18.9 71.3850009,20.43 C71.3850009,21.87 70.5750009,22.98 68.9250009,22.98 C67.2450009,22.98 66.4050009,21.84 66.4050009,20.43 C66.4050009,18.93 67.3950009,17.91 68.9250009,17.91 Z M69.2850009,33.72 C67.6050009,33.72 65.7750009,33.33 65.7750009,32.07 C65.7750009,32.01 65.7750009,31.92 65.8050009,31.83 L67.0950009,30.6 L68.3250009,30.78 L69.6016363,30.9537193 C71.1561662,31.1733175 72.3450009,31.4358621 72.3450009,32.34 C72.3450009,33.36 70.8150009,33.72 69.2850009,33.72 Z M85.7700011,14.91 C84.0900011,14.91 82.4400011,15.9 81.8100011,17.73 L81.8100011,15.21 L78.1800011,15.21 L78.1800011,30 L81.7800011,30 L81.7800011,22.56 C81.7800011,19.77 82.8600011,18.42 85.0500011,18.42 C85.7700011,18.42 86.3400011,18.6 86.8500011,18.93 L88.5900011,15.75 C87.6300011,15.15 86.7600011,14.91 85.7700011,14.91 Z M95.1150013,30.3 C99.6750013,30.3 102.525001,26.76 102.525001,22.59 C102.525001,18.39 99.6750013,14.91 95.1150013,14.91 C90.5250013,14.91 87.7050013,18.39 87.7050013,22.59 C87.7050013,26.76 90.5250013,30.3 95.1150013,30.3 Z M95.1150013,27.15 C92.3850013,27.15 91.3050013,24.99 91.3050013,22.59 C91.3050013,20.16 92.3850013,18.06 95.1150013,18.06 C97.8450013,18.06 98.9250013,20.16 98.9250013,22.59 C98.9250013,24.99 97.8450013,27.15 95.1150013,27.15 Z M106.950002,30 L110.190002,30 L113.100002,20.31 L116.010002,30 L119.250002,30 L123.810001,15.21 L119.970002,15.21 L117.420002,24.45 L114.630002,15.21 L111.540002,15.21 L108.750002,24.48 L106.230002,15.21 L102.390002,15.21 L106.950002,30 Z M126.195002,30 L129.825002,30 L129.825002,26.1 L126.195002,26.1 L126.195002,30 Z M139.920002,14.91 C137.220002,14.91 135.030002,15.96 133.260002,18.09 L135.870002,20.28 C136.950002,18.84 138.360002,18.06 139.860002,18.06 C141.570002,18.06 142.650002,19.05 142.650002,20.67 L142.650002,21.09 L138.960002,21.09 C137.280002,21.09 136.020002,21.3 135.030002,21.75 C133.590002,22.41 132.810002,23.73 132.810002,25.47 C132.810002,28.29 135.030002,30.3 138.150002,30.3 C140.100002,30.3 141.780002,29.46 142.650002,28.08 L142.950002,30 L146.250002,30 L146.250002,20.67 C146.250002,17.1 143.820002,14.91 139.920002,14.91 Z M138.720002,27.24 C137.280002,27.24 136.410002,26.58 136.410002,25.53 C136.410002,24.99 136.620002,24.57 137.010002,24.3 C137.490002,23.94 138.210002,23.79 139.440002,23.79 L142.650002,23.79 C142.650002,25.71 140.880002,27.24 138.720002,27.24 Z M149.295002,12.42 L153.075002,12.42 L153.075002,9.09 L149.295002,9.09 L149.295002,12.42 Z M149.385002,30 L149.385002,15.21 L152.985002,15.21 L152.985002,30 L149.385002,30 Z" id="instagrow.ai"></path>
                </g>
                <g id="logo-3" transform="translate(0.000000, 7.000000)">
                    <path d="M4.84,5.3 C6.68,5.3 8.18,6.8 8.18,8.64 C8.18,9.18 8.04,9.7 7.8,10.16 C9.1,8.06 11.42,6.66 14.08,6.66 C18.16,6.66 21.48,9.96 21.48,14.06 C21.48,15.36 21.14,16.56 20.56,17.62 C21.12,16.6 22.22,15.9 23.48,15.9 C25.32,15.9 26.82,17.4 26.82,19.24 C26.82,19.7 26.72,20.14 26.56,20.52 C27.56,18.58 28.14,16.38 28.14,14.06 C28.14,6.3 21.86,0.02 14.1,0.02 C8.94,0.02 4.46,2.78 2,6.9 C2.6,5.94 3.64,5.3 4.84,5.3 Z" id="Path" fill="url(#linearGradient-1)"></path>
                    <path d="M23.48,22.58 C21.64,22.58 20.14,21.08 20.14,19.24 C20.14,18.66 20.28,18.12 20.54,17.66 C19.28,19.92 16.86,21.46 14.08,21.46 C10,21.46 6.68,18.16 6.68,14.06 C6.68,12.78 7,11.56 7.58,10.5 C6.98,11.38 5.96,11.96 4.82,11.96 C2.98,11.96 1.48,10.46 1.48,8.62 C1.48,8.06 1.62,7.54 1.86,7.08 C0.72,9.16 0.04,11.54 0.04,14.06 C0.04,21.82 6.32,28.1 14.08,28.1 C19.26,28.1 23.78,25.3 26.22,21.12 C25.62,22 24.62,22.58 23.48,22.58 Z" id="Path" fill="url(#linearGradient-2)"></path>
                    <path d="M4.84,5.3 C3.64,5.3 2.58,5.94 2,6.9 C1.96,6.96 1.92,7.04 1.88,7.1 C1.64,7.56 1.5,8.08 1.5,8.64 C1.5,10.48 3,11.98 4.84,11.98 C6,11.98 7,11.4 7.6,10.52 C7.68,10.4 7.74,10.3 7.8,10.18 C8.04,9.72 8.18,9.2 8.18,8.66 C8.18,6.8 6.68,5.3 4.84,5.3 Z" id="Path" fill="#EF4973"></path>
                    <path d="M23.48,15.92 C22.22,15.92 21.14,16.62 20.56,17.64 C20.56,17.64 20.54,17.66 20.54,17.66 C20.28,18.14 20.14,18.66 20.14,19.24 C20.14,21.08 21.64,22.58 23.48,22.58 C24.62,22.58 25.62,22.02 26.22,21.14 C26.36,20.96 26.46,20.74 26.56,20.54 C26.72,20.14 26.82,19.7 26.82,19.26 C26.82,17.4 25.32,15.92 23.48,15.92 Z" id="Path" fill="#EF4973"></path>
                </g>
            </g>
        </g>
    </g>
</svg>